<svg width="160" height="142" viewBox="0 0 160 142" fill="none" xmlns="http://www.w3.org/2000/svg">
<path d="M58.3672 88.8146L46.9291 88.9703L41.4864 77.9388L36.5987 88.9176L25.1206 88.6784L32.2185 99.0316L27.9675 110.848L41.8661 106.203L55.2115 110.992L51.3438 99.0879L58.3672 88.8146ZM96.7827 99.6145L85.1747 99.8681L80.3979 88.8867L74.8844 99.8919L63.266 99.6913L70.5656 110.033L66.3404 121.869L80.3262 117.146L93.8133 121.806L89.5371 109.989L96.7827 99.6145ZM135.039 88.8038L123.572 88.9793L118.746 77.9733L113.24 88.9744L101.793 88.7564L108.766 99.0689L104.831 110.951L118.206 106.236L132.075 110.957L128.093 99.0908L135.039 88.8038ZM160 58.6522L148.403 58.8862L142.911 47.8812L138.093 58.8773L126.623 58.678L133.738 69.0037L129.498 80.8286L143.435 76.1424L156.871 80.8545L152.896 68.9852L160 58.6522ZM33.3734 58.552L21.917 58.8127L17.0415 47.8438L11.6074 58.8775L0 58.7078L7.16481 69.0025L3.25215 80.8919L16.666 76.1083L30.6239 80.7184L26.3238 68.9157L33.3734 58.552ZM13.8594 135.55L16.7438 136.483C15.8891 139.521 13.8238 141.041 10.5477 141.041C8.21522 141.041 6.49704 140.285 5.39314 138.775C4.30704 137.265 3.76399 135.533 3.76399 133.578C3.76399 131.268 4.36936 129.412 5.58009 128.008C6.80863 126.604 8.5357 125.903 10.7613 125.903C13.9484 125.903 15.9247 127.271 16.6903 130.007L13.7258 130.7C13.3341 129.047 12.2925 128.221 10.6011 128.221C8.10838 128.221 6.86204 129.936 6.86204 133.365C6.86204 136.936 8.08167 138.722 10.5209 138.722C12.248 138.722 13.3608 137.665 13.8594 135.55ZM21.6045 126.196V131.659C22.5303 130.593 23.6342 130.06 24.9162 130.06C26.3406 130.06 27.311 130.451 27.8273 131.233C28.3436 131.997 28.6018 133.125 28.6018 134.618V140.854H25.7441V135.284C25.7441 133.987 25.6195 133.116 25.3702 132.672C25.1388 132.21 24.6758 131.979 23.9814 131.979C22.3968 131.979 21.6045 133.178 21.6045 135.577V140.854H18.7468V126.196H21.6045ZM30.8185 128.568V126.196H33.6762V128.568H30.8185ZM30.8185 140.854V130.327H33.6762V140.854H30.8185ZM45.4541 133.178L42.6498 133.711C42.4361 132.557 41.7863 131.979 40.7002 131.979C39.1511 131.979 38.3766 133.098 38.3766 135.337C38.3766 137.754 39.1689 138.962 40.7536 138.962C41.8575 138.962 42.543 138.278 42.81 136.91L45.6143 137.389C45.0624 139.823 43.3976 141.041 40.62 141.041C38.9642 141.041 37.6822 140.534 36.7742 139.521C35.8661 138.509 35.4121 137.176 35.4121 135.524C35.4121 134.049 35.8216 132.761 36.6406 131.659C37.4597 130.558 38.8039 130.007 40.6735 130.007C43.2374 130.007 44.8309 131.064 45.4541 133.178ZM47.0832 140.854V126.196H49.9409V134.085L53.2793 130.327H56.6177L53.0924 134.111L56.9916 140.854H53.9737L51.2763 136.057L49.9409 137.416V140.854H47.0832ZM64.8436 137.603L67.6745 138.082C66.9801 140.054 65.4311 141.041 63.0275 141.041C61.1401 141.041 59.787 140.516 58.9679 139.468C58.1667 138.402 57.7661 137.114 57.7661 135.604C57.7661 133.969 58.2023 132.628 59.0748 131.579C59.965 130.531 61.1757 130.007 62.707 130.007C66.1611 130.007 67.8882 132.077 67.8882 136.217H60.6772C60.784 138.189 61.5763 139.175 63.0542 139.175C63.9622 139.175 64.5587 138.651 64.8436 137.603ZM65.0572 134.724C64.986 132.859 64.2649 131.926 62.8939 131.926C61.4873 131.926 60.784 132.859 60.784 134.724H65.0572ZM79.5325 140.854H76.6749V135.47C76.6749 134.156 76.5502 133.249 76.301 132.752C76.0695 132.237 75.6066 131.979 74.9122 131.979C74.289 131.979 73.7371 132.175 73.2563 132.565C72.7756 132.939 72.5352 134.12 72.5352 136.11V140.854H69.6775V130.327H72.3216V131.872C73.2652 130.664 74.467 130.06 75.927 130.06C78.3307 130.06 79.5325 131.464 79.5325 134.271V140.854ZM105.332 141.067H101.7L99.9102 139.548C99.2692 140.081 98.4591 140.499 97.4798 140.801C96.5184 141.103 95.4412 141.254 94.2483 141.254C93.2334 141.254 92.3253 141.156 91.5241 140.961C90.7407 140.765 89.9929 140.428 89.2807 139.948C87.7673 138.988 87.0106 137.665 87.0106 135.977C87.0106 134.804 87.3578 133.845 88.0522 133.098C88.7643 132.334 89.7525 131.81 91.0167 131.526C90.3579 130.904 89.9306 130.433 89.7347 130.113C89.4142 129.616 89.254 129.056 89.254 128.434C89.254 127.546 89.6635 126.773 90.4825 126.116C91.3906 125.387 92.5835 125.023 94.0613 125.023C95.3789 125.023 96.465 125.316 97.3196 125.903C98.192 126.489 98.6283 127.333 98.6283 128.434C98.6283 130.229 97.5511 131.49 95.3967 132.219C96.5362 133.125 97.8181 134.307 99.2425 135.764C99.4562 135.319 99.563 134.706 99.563 133.925C99.563 133.64 99.4829 133.303 99.3227 132.912H102.554L102.661 134.191C102.661 135.559 102.341 136.723 101.7 137.682C101.985 137.878 103.195 139.006 105.332 141.067ZM95.4234 128.728C95.4234 127.768 95.0317 127.288 94.2483 127.288C93.8031 127.288 93.447 127.431 93.18 127.715C92.9307 127.999 92.7794 128.381 92.726 128.861C92.726 129.412 93.0731 130.025 93.7675 130.7C94.8714 130.202 95.4234 129.545 95.4234 128.728ZM97.8805 137.656L92.993 133.285C91.444 133.64 90.6695 134.529 90.6695 135.95C90.6695 136.714 91.0078 137.38 91.6844 137.949C92.3788 138.5 93.2512 138.775 94.3017 138.775C95.3166 138.775 96.5095 138.402 97.8805 137.656ZM112.89 126.196H118.846C121.267 126.196 122.843 126.56 123.573 127.288C124.303 128.017 124.668 128.861 124.668 129.82C124.668 131.277 123.858 132.37 122.238 133.098C124.339 133.703 125.389 134.884 125.389 136.643C125.389 137.674 125.104 138.544 124.534 139.255C123.982 139.948 123.315 140.392 122.531 140.587C121.766 140.765 120.252 140.854 117.991 140.854H112.89V126.196ZM115.908 128.434V132.112H117.911C119.442 132.112 120.466 132.015 120.982 131.819C121.499 131.606 121.757 131.082 121.757 130.247C121.757 129.465 121.525 128.967 121.062 128.754C120.599 128.541 119.451 128.434 117.617 128.434H115.908ZM115.908 134.351V138.589H118.712C120.083 138.589 121.018 138.464 121.516 138.216C122.033 137.967 122.291 137.398 122.291 136.51C122.291 135.657 122.015 135.088 121.463 134.804C120.911 134.502 119.869 134.351 118.338 134.351H115.908ZM127.312 126.196H133.268C135.689 126.196 137.265 126.56 137.995 127.288C138.725 128.017 139.09 128.861 139.09 129.82C139.09 131.277 138.28 132.37 136.66 133.098C138.76 133.703 139.811 134.884 139.811 136.643C139.811 137.674 139.526 138.544 138.956 139.255C138.404 139.948 137.737 140.392 136.953 140.587C136.188 140.765 134.674 140.854 132.413 140.854H127.312V126.196ZM130.33 128.434V132.112H132.333C133.864 132.112 134.888 132.015 135.404 131.819C135.921 131.606 136.179 131.082 136.179 130.247C136.179 129.465 135.947 128.967 135.484 128.754C135.021 128.541 133.873 128.434 132.039 128.434H130.33ZM130.33 134.351V138.589H133.134C134.505 138.589 135.44 138.464 135.938 138.216C136.455 137.967 136.713 137.398 136.713 136.51C136.713 135.657 136.437 135.088 135.885 134.804C135.333 134.502 134.291 134.351 132.76 134.351H130.33ZM153.779 138.775C154.616 139.379 155.435 139.823 156.236 140.108L155.221 142C154.473 141.805 153.352 141.183 151.856 140.134C150.895 140.543 149.808 140.747 148.598 140.747C145.963 140.747 144.075 140.01 142.936 138.535C141.814 137.043 141.253 135.257 141.253 133.178C141.253 130.851 141.885 129.012 143.149 127.662C144.414 126.293 146.212 125.609 148.544 125.609C150.823 125.609 152.586 126.293 153.832 127.662C155.096 129.012 155.729 130.851 155.729 133.178C155.729 135.399 155.079 137.265 153.779 138.775ZM151.455 137.149C152.239 136.226 152.63 134.902 152.63 133.178C152.63 129.66 151.26 127.901 148.518 127.901C147.2 127.901 146.176 128.372 145.446 129.314C144.716 130.256 144.351 131.544 144.351 133.178C144.351 134.635 144.672 135.897 145.313 136.963C145.971 138.011 147.004 138.535 148.411 138.535C148.838 138.535 149.328 138.438 149.88 138.242C149.078 137.709 148.402 137.345 147.85 137.149L148.598 135.63C149.63 135.986 150.583 136.492 151.455 137.149ZM53.7269 72.7277C54.5169 72.7277 55.1094 72.6136 55.5045 72.3854C55.8995 72.1572 56.097 71.7838 56.097 71.2651C56.097 70.9124 56.0034 70.6324 55.8163 70.4249C55.6292 70.2174 55.2966 70.01 54.8184 69.8025L51.5128 68.2777C50.2862 67.7175 49.3403 66.9706 48.675 66.0371C48.0097 65.1035 47.6771 63.7446 47.6771 61.9604C47.6771 59.6783 48.2696 57.9771 49.4546 56.8568C50.6604 55.7158 52.6459 55.1349 55.4109 55.1141C56.5543 55.1141 57.5938 55.166 58.5294 55.2697C59.4649 55.3735 60.2134 55.4876 60.7747 55.6121C61.336 55.7158 61.6167 55.7677 61.6167 55.7677L60.993 60.7779C60.993 60.7779 60.7331 60.7468 60.2134 60.6845C59.7144 60.6223 59.0907 60.5704 58.3423 60.5289C57.5938 60.4667 56.8662 60.4356 56.1593 60.4356C55.4109 60.4356 54.8392 60.5497 54.4442 60.7779C54.07 60.9853 53.8829 61.3899 53.8829 61.9915C53.8829 62.3235 54.0284 62.6036 54.3194 62.8318C54.6105 63.0392 55.0159 63.2571 55.5356 63.4853L58.1863 64.6367C59.6 65.2591 60.6291 66.0371 61.2736 66.9707C61.9181 67.8835 62.2404 69.1905 62.2404 70.8917C62.2404 73.1945 61.6375 74.9683 60.4317 76.2131C59.2258 77.4579 57.2404 78.0907 54.4754 78.1114C53.1032 78.1114 51.8247 78.018 50.6396 77.8313C49.4546 77.6654 48.4047 77.4683 47.49 77.2401L48.1137 72.2298C48.1137 72.2298 48.3631 72.2713 48.8621 72.3543C49.3818 72.4373 50.0679 72.5203 50.9203 72.6032C51.7727 72.6862 52.7082 72.7277 53.7269 72.7277ZM77.8015 60.3733H73.6851V77.8002H67.5729V60.3733H63.0199V55.3942H78.7371L77.8015 60.3733ZM83.6642 74.7816L83.0716 77.8002H76.554L81.0446 58.195L80.3274 55.1453H89.7452L94.6412 77.8002H88.1859L87.5934 74.7816H83.6642ZM84.2879 69.9581H86.9386L85.6288 61.8048L84.2879 69.9581ZM103.342 55.3942C105.171 55.3942 106.699 55.6328 107.926 56.11C109.152 56.5664 110.067 57.3444 110.67 58.4439C111.294 59.5227 111.606 61.0061 111.606 62.894C111.606 64.4707 111.367 65.7674 110.888 66.7839C110.41 67.7797 109.683 68.5785 108.705 69.1801L112.51 77.8002H105.743L103.279 70.5182H102.281V77.8002H96.2004V59.6576L94.4852 55.3942H103.342ZM102.281 66.3482C103.238 66.3482 103.945 66.1097 104.402 65.6325C104.859 65.1553 105.088 64.3151 105.088 63.1118C105.088 62.1575 105.005 61.4521 104.839 60.9957C104.672 60.5186 104.381 60.197 103.965 60.031C103.57 59.865 103.009 59.7821 102.281 59.7821L102.281 66.3482ZM96.1955 33.1432C96.1955 38.4279 94.6661 42.5509 91.6073 45.5122C88.5486 48.4278 83.5495 49.8857 76.6102 49.8857C74.1906 49.8857 71.8623 49.6579 69.6253 49.2023C67.4339 48.7012 65.4936 48.1545 63.8044 47.5623L65.2425 37.1068C67.2056 37.8357 69.2144 38.3824 71.2688 38.7468C73.3232 39.1113 75.2178 39.2024 76.9526 39.0202C78.6874 38.8379 80.0799 38.2913 81.1299 37.3801C82.2256 36.469 82.7734 35.1022 82.7734 33.2799C82.7734 31.5943 82.2484 30.3414 81.1984 29.5214C80.1484 28.7014 78.7788 28.1774 77.0896 27.9497C75.4461 27.7219 73.6428 27.6535 71.6797 27.7446C69.7622 27.8358 67.9361 27.9269 66.2013 28.018V0H95.3737L92.977 12.3006H78.3907V18.8609C79.4407 18.7698 80.5136 18.7242 81.6093 18.7242C85.9463 18.7242 89.4616 19.8632 92.1552 22.141C94.8487 24.4189 96.1955 28.0863 96.1955 33.1432Z" fill="#262121"/>
</svg>
