<svg width="27" height="27" viewBox="0 0 27 27" fill="none" xmlns="http://www.w3.org/2000/svg">
<path d="M26 19.65V23.4C26.0014 23.7481 25.9301 24.0927 25.7906 24.4117C25.6511 24.7307 25.4466 25.017 25.1901 25.2523C24.9335 25.4877 24.6307 25.6669 24.3009 25.7784C23.9711 25.8899 23.6217 25.9313 23.275 25.9C19.4285 25.4821 15.7337 24.1677 12.4875 22.0625C9.46726 20.1433 6.90665 17.5827 4.98748 14.5625C2.87495 11.3015 1.56028 7.58874 1.14998 3.725C1.11874 3.37933 1.15982 3.03095 1.2706 2.70203C1.38138 2.37311 1.55944 2.07086 1.79343 1.81453C2.02743 1.55819 2.31223 1.35339 2.62972 1.21315C2.9472 1.07292 3.2904 1.00033 3.63748 0.999999H7.38748C7.99411 0.994029 8.58222 1.20885 9.04218 1.60441C9.50214 1.99998 9.80257 2.54931 9.88748 3.15C10.0458 4.35008 10.3393 5.52841 10.7625 6.6625C10.9307 7.1099 10.9671 7.59614 10.8674 8.0636C10.7677 8.53106 10.5361 8.96014 10.2 9.3L8.61248 10.8875C10.3919 14.0169 12.983 16.6081 16.1125 18.3875L17.7 16.8C18.0398 16.4639 18.4689 16.2323 18.9364 16.1326C19.4038 16.0329 19.8901 16.0693 20.3375 16.2375C21.4716 16.6607 22.6499 16.9542 23.85 17.1125C24.4572 17.1982 25.0117 17.504 25.4081 17.9719C25.8046 18.4397 26.0152 19.037 26 19.65Z" stroke="#262121" stroke-width="2" stroke-linecap="round" stroke-linejoin="round"/>
</svg>
